<?xml version="1.0" standalone="no"?>
<!DOCTYPE svg PUBLIC "-//W3C//DTD SVG 20010904//EN"
 "http://www.w3.org/TR/2001/REC-SVG-20010904/DTD/svg10.dtd">
<svg version="1.0" xmlns="http://www.w3.org/2000/svg"
 width="597.000000pt" height="407.000000pt" viewBox="0 0 597.000000 407.000000"
 preserveAspectRatio="xMidYMid meet">
<metadata>
Created by potrace 1.16, written by Peter Selinger 2001-2019
</metadata>
<g transform="translate(0.000000,407.000000) scale(0.100000,-0.100000)"
fill="#000000" stroke="none">
<path d="M4125 3895 c-3 -8 -7 -22 -10 -31 -3 -9 -12 -14 -19 -11 -20 8 -36
-15 -30 -40 3 -11 1 -24 -5 -27 -6 -4 -11 0 -11 8 0 8 -8 19 -17 24 -26 15
-61 -6 -68 -42 -14 -67 -14 -67 -35 -46 -16 16 -17 25 -9 52 5 18 9 35 9 37 0
14 -26 -24 -51 -76 l-30 -58 6 48 c4 26 4 47 1 47 -2 0 -19 -19 -36 -42 -18
-24 -30 -34 -26 -23 6 18 5 18 -8 5 -23 -23 -37 -115 -31 -195 5 -58 4 -67 -6
-50 -7 11 -16 36 -20 55 -6 31 -7 30 -8 -19 -2 -79 17 -132 51 -145 15 -6 28
-14 28 -18 0 -5 12 -13 27 -19 27 -10 102 2 150 24 12 5 31 10 42 11 11 0 42
23 68 50 42 44 53 50 98 54 58 5 54 -5 -15 -41 -49 -25 -60 -41 -33 -50 10 -4
30 -16 45 -28 23 -19 30 -20 56 -10 17 7 49 10 77 6 26 -3 53 -2 59 3 6 4 25
9 41 11 17 1 37 9 46 17 22 20 34 18 48 -9 7 -13 21 -28 31 -35 36 -22 59 31
89 209 15 87 30 156 34 152 12 -11 8 23 -7 58 -8 19 -29 43 -48 53 -18 11 -37
25 -41 33 -4 7 -15 13 -23 13 -8 0 -35 11 -59 24 -37 21 -45 23 -56 10 -15
-19 -33 -18 -25 1 3 8 1 15 -4 15 -6 0 -10 -4 -10 -10 0 -5 -12 -13 -27 -16
-15 -4 -36 -17 -45 -28 -18 -21 -18 -21 -12 7 9 41 -14 34 -33 -10 -16 -37
-16 -37 -23 -13 -6 21 -8 23 -15 8 -8 -19 -45 -25 -45 -8 0 6 -7 10 -15 10
-19 0 -43 42 -26 48 6 2 9 8 5 13 -8 14 -24 11 -29 -6z"/>
<path d="M4506 2935 c-9 -65 -50 -148 -103 -203 -39 -41 -69 -50 -57 -17 6 14
-18 99 -38 138 -5 10 -6 22 -3 27 4 6 2 10 -3 10 -4 0 -19 -19 -32 -42 -30
-56 -68 -96 -105 -114 -16 -7 -40 -21 -52 -29 -17 -13 -23 -14 -32 -3 -6 7
-21 26 -34 42 -22 27 -29 29 -112 33 -92 5 -135 -1 -135 -17 0 -5 7 -7 15 -3
9 3 21 -2 28 -10 7 -9 25 -16 42 -15 80 2 88 0 82 -28 -5 -27 0 -28 46 -9 23
10 23 -29 0 -76 -21 -44 -31 -50 -71 -43 -23 5 -38 2 -50 -9 -11 -10 -22 -13
-32 -7 -9 6 -23 1 -43 -16 -16 -13 -32 -24 -37 -24 -5 0 -16 -13 -24 -30 -9
-16 -24 -44 -33 -62 -9 -18 -18 -27 -21 -20 -2 7 -10 12 -18 12 -23 0 -16 -49
11 -76 l24 -24 -50 -36 c-27 -20 -48 -42 -46 -48 8 -21 -13 -47 -33 -41 -10 3
-23 0 -29 -7 -6 -7 -21 -26 -33 -41 -22 -27 -24 -28 -54 -12 -40 20 -52 67
-28 114 17 34 7 61 -24 61 -12 0 -13 -9 -8 -50 8 -58 -8 -73 -49 -46 -36 24
-82 21 -91 -6 -8 -28 28 -60 65 -57 53 4 61 0 61 -30 0 -17 -5 -33 -12 -37 -7
-5 -5 -11 7 -21 30 -21 47 -17 40 10 -6 18 -5 20 6 9 8 -7 14 -18 14 -25 0 -6
11 -15 25 -19 14 -4 48 -14 75 -22 28 -8 53 -12 56 -8 4 4 9 23 13 42 5 31 4
33 -8 18 -14 -19 -41 -24 -50 -9 -3 5 3 19 13 32 17 21 21 22 44 10 31 -17 45
-9 64 37 8 20 30 55 49 78 28 34 34 48 29 71 -6 25 -5 26 7 11 13 -15 15 -14
29 11 12 21 24 27 52 28 20 1 41 -5 48 -13 6 -8 17 -14 23 -14 6 0 36 -25 66
-55 30 -30 61 -55 69 -55 11 0 11 4 -3 19 -16 18 -15 20 14 44 17 15 37 24 44
21 8 -3 17 -1 21 5 3 6 15 11 26 11 10 0 19 5 19 10 0 6 3 9 8 8 13 -5 92 57
92 72 0 13 25 54 100 165 13 19 20 24 20 14 0 -18 44 -52 54 -42 3 4 6 19 6
35 0 21 -6 31 -22 37 -15 5 -26 4 -30 -3 -5 -7 -8 -6 -8 4 0 41 57 79 75 50 4
-6 14 -9 23 -8 25 5 27 -73 2 -102 -28 -32 -27 -86 2 -93 31 -9 40 1 37 42 -3
60 0 71 20 71 11 0 23 -5 26 -10 4 -6 11 -8 16 -5 5 3 25 2 44 -4 32 -9 37 -7
51 15 22 32 33 30 41 -7 4 -21 10 -28 20 -24 11 3 13 1 10 -10 -11 -26 10 -25
37 2 29 29 35 59 10 49 -8 -3 -22 1 -30 9 -14 13 -13 18 4 43 11 15 32 34 45
41 24 13 55 66 45 77 -11 10 -59 -17 -69 -40 -6 -13 -23 -29 -38 -36 -14 -7
-33 -16 -41 -20 -8 -4 -16 -17 -18 -29 -5 -30 -40 -27 -74 6 l-29 27 -6 -22
c-8 -30 -19 -28 -32 8 -6 20 -17 30 -30 30 -13 0 -27 12 -36 30 -9 17 -22 30
-30 30 -19 0 -9 29 21 58 26 25 30 37 14 47 -15 10 -12 33 8 53 16 16 16 23 6
62 l-11 45 -7 -50z"/>
<path d="M5125 2680 c-3 -5 -26 -10 -49 -10 -29 0 -52 -7 -67 -20 -13 -10 -20
-19 -16 -20 5 0 1 -7 -7 -16 -9 -8 -14 -25 -12 -36 1 -12 -8 -37 -21 -56 -12
-19 -23 -40 -23 -47 0 -6 -9 -20 -19 -29 -18 -17 -20 -17 -30 1 -6 10 -11 13
-11 7 0 -7 -11 -9 -26 -6 -30 5 -44 -10 -44 -50 0 -22 5 -27 28 -30 23 -2 27
-7 25 -30 -1 -16 2 -28 8 -28 5 0 8 -15 8 -32 -1 -24 -3 -27 -6 -10 -10 54
-78 52 -85 -2 -5 -42 0 -56 18 -56 8 0 14 -6 14 -12 0 -9 3 -9 8 -2 10 15 42
25 42 14 0 -6 -7 -10 -15 -10 -9 0 -12 -6 -8 -17 5 -12 2 -15 -8 -11 -9 3 -25
-5 -39 -19 -17 -17 -29 -23 -44 -18 -67 22 -113 5 -118 -44 -2 -19 3 -26 25
-32 15 -4 40 -4 55 0 36 9 82 2 82 -12 0 -7 -9 -23 -19 -36 -15 -20 -20 -22
-38 -10 -12 7 -19 18 -17 24 3 6 -2 12 -11 12 -13 0 -15 -9 -11 -43 5 -45 21
-84 35 -84 5 0 11 -15 13 -34 3 -29 0 -37 -20 -45 -32 -15 -52 -14 -58 4 -4 8
-10 13 -14 10 -5 -3 -11 -1 -15 5 -3 5 -1 10 4 10 14 0 14 65 1 91 -12 22 -38
25 -64 6 -17 -12 -17 -18 -7 -50 8 -25 19 -37 31 -37 10 0 20 -10 23 -22 5
-17 -2 -30 -29 -55 -33 -30 -38 -31 -58 -18 -17 12 -26 12 -46 2 -20 -11 -24
-20 -22 -47 1 -19 6 -37 11 -40 17 -11 32 -52 26 -70 -9 -27 22 -27 75 1 42
22 53 34 21 24 -14 -4 -25 1 -37 20 -21 31 -5 55 36 55 28 0 40 -15 40 -51 0
-22 2 -22 53 -8 40 11 45 23 22 53 -8 10 -12 23 -9 27 7 12 54 11 54 -1 0 -5
-4 -10 -10 -10 -5 0 -10 -7 -10 -16 0 -8 5 -12 10 -9 6 4 17 1 25 -5 26 -22
37 -5 39 60 2 36 7 87 11 114 7 45 7 49 -10 43 -19 -8 -48 10 -39 24 3 5 14 9
25 9 23 0 39 35 39 87 0 31 8 44 60 91 33 30 57 59 54 64 -8 12 35 58 53 58
22 0 14 -27 -14 -48 -21 -15 -25 -23 -16 -33 13 -16 -1 -41 -29 -52 -20 -7
-53 -55 -44 -64 3 -4 19 6 34 20 16 15 33 27 38 27 6 0 33 11 60 25 27 14 41
25 32 25 -9 0 -20 9 -23 20 -9 27 3 60 21 60 8 0 14 7 14 15 0 8 -6 15 -12 15
-7 0 -2 7 10 16 34 24 206 27 252 4 19 -9 47 -20 62 -24 27 -6 58 -31 58 -46
0 -5 -13 -17 -30 -27 -38 -22 -38 -42 0 -49 22 -5 32 -14 40 -40 6 -19 24 -42
39 -53 l27 -19 2 29 c2 30 -13 69 -31 81 -7 4 -6 12 2 22 7 8 10 20 6 27 -4 6
-2 15 5 19 9 6 8 15 -6 41 -9 19 -16 50 -16 70 1 21 -4 42 -13 49 -12 10 -13
7 -5 -22 6 -18 10 -34 10 -35 0 -9 -49 0 -70 12 -14 8 -52 14 -85 15 -39 0
-69 6 -83 16 -13 9 -32 14 -43 11 -17 -5 -18 -3 -8 9 6 8 14 12 17 9 3 -3 16
5 29 17 30 28 14 48 -39 48 -31 0 -38 -3 -36 -17 4 -23 -49 -44 -62 -24 -14
23 -57 4 -87 -39 -27 -39 -57 -52 -65 -28 -9 27 -26 -5 -32 -61 -7 -65 -22
-87 -31 -48 -10 39 46 184 66 172 12 -8 79 13 79 25 0 4 -10 15 -22 24 l-23
15 24 21 c13 11 33 20 46 20 12 0 30 9 40 20 14 16 31 20 82 20 74 0 132 -25
175 -74 15 -17 27 -27 28 -23 0 5 12 -1 26 -12 35 -28 39 -27 41 12 4 51 -15
97 -40 97 -27 1 -55 21 -50 36 2 7 -10 22 -27 34 -29 21 -30 21 -30 1 0 -25
-32 -36 -62 -20 l-22 12 22 17 c18 15 19 20 7 30 -7 6 -24 10 -37 8 -18 -2
-22 -8 -20 -29 2 -21 -2 -28 -22 -33 -13 -3 -31 -8 -39 -12 -11 -4 -13 1 -10
20 6 27 -7 33 -41 20 -17 -7 -22 -34 -6 -34 19 0 10 -15 -21 -32 -17 -10 -37
-18 -45 -18 -24 0 -15 30 12 40 14 6 23 14 19 20 -3 5 8 16 25 25 16 8 30 20
30 25 0 6 15 10 33 10 17 1 43 7 57 15 l25 14 -37 1 c-20 0 -40 -4 -43 -10z"/>
<path d="M2396 2604 c-4 -11 -13 -14 -30 -10 -30 7 -38 -1 -25 -26 14 -27 2
-36 -16 -12 -21 28 -18 10 5 -31 11 -20 20 -43 20 -53 -1 -15 -2 -15 -15 2
-24 31 -26 13 -5 -29 13 -25 16 -41 9 -45 -7 -5 -7 -21 0 -51 5 -24 9 -45 7
-46 -12 -13 -57 90 -46 106 4 7 4 30 0 51 -5 25 -3 41 3 43 15 5 0 37 -17 37
-20 0 -11 -108 20 -235 13 -55 24 -118 26 -140 2 -53 7 -59 28 -40 13 12 39
17 86 18 37 1 69 7 70 12 2 6 -17 25 -41 43 -47 34 -65 73 -48 101 7 11 30 18
69 21 51 4 59 8 62 27 2 12 -9 35 -28 56 -19 22 -28 41 -24 51 9 24 -15 48
-42 42 -28 -7 -39 7 -20 24 20 16 16 49 -10 77 -25 27 -30 28 -38 7z"/>
<path d="M4705 2494 c-13 -10 -39 -14 -71 -13 -27 1 -56 -1 -62 -5 -18 -11
-14 -41 7 -60 16 -15 17 -22 8 -47 -16 -40 -37 -33 -55 19 -12 38 -32 57 -32
31 0 -5 -4 -7 -10 -4 -5 3 -10 -1 -10 -9 0 -20 -10 -20 -38 0 -12 8 -22 24
-22 34 0 16 -6 18 -42 14 -27 -3 -50 -13 -60 -25 -21 -24 -24 -60 -5 -57 13 3
15 -36 3 -64 -5 -11 -1 -18 13 -23 12 -3 21 -13 21 -21 0 -8 7 -17 15 -20 19
-8 19 -41 0 -52 -10 -5 -17 -27 -19 -60 -2 -29 -2 -52 0 -52 15 0 66 66 71 91
4 23 8 27 19 18 7 -5 16 -25 20 -42 6 -30 7 -31 15 -9 5 14 17 22 32 22 30 0
55 27 63 68 7 33 54 82 80 82 7 0 20 13 29 29 8 17 30 42 49 56 19 14 37 33
40 41 3 9 -9 4 -29 -12 -40 -30 -44 -21 -16 36 21 44 16 56 -14 34z"/>
<path d="M5230 2211 c0 -3 14 -18 32 -33 l33 -27 -30 -1 c-28 -1 -27 -2 14
-16 24 -9 55 -29 69 -46 14 -17 31 -35 37 -42 26 -26 45 -62 45 -83 0 -13 8
-32 18 -43 l17 -21 5 23 c5 20 9 17 29 -25 27 -55 47 -57 44 -3 -2 34 -14 57
-78 158 -12 18 -29 32 -42 33 -30 2 -65 34 -58 54 8 27 -50 74 -96 76 -21 1
-39 0 -39 -4z"/>
<path d="M2553 2129 c-7 -7 -49 -14 -94 -16 -99 -6 -134 -23 -124 -62 4 -14 8
-51 10 -81 4 -87 25 -124 84 -153 50 -24 51 -24 25 -35 -14 -7 -33 -12 -44
-12 -23 0 -32 -13 -37 -57 -4 -37 4 -41 35 -15 11 9 46 35 78 57 31 22 77 58
101 79 40 36 42 40 26 51 -12 9 -46 12 -100 9 -62 -2 -82 0 -86 11 -3 7 -16
15 -29 17 -21 3 -23 8 -23 53 0 28 -3 55 -7 60 -3 6 1 21 11 33 17 23 18 23
104 11 47 -7 90 -9 94 -5 4 5 2 11 -4 13 -8 3 -11 14 -7 29 7 27 4 30 -13 13z"/>
<path d="M4444 2025 c-24 -27 -49 -46 -64 -47 -29 -3 -63 -30 -148 -118 -84
-87 -96 -110 -77 -146 16 -32 12 -44 -16 -44 -16 0 -19 4 -14 23 7 21 7 22 -8
2 -15 -21 -47 -151 -47 -191 0 -27 11 -30 43 -13 29 16 28 14 21 33 -3 9 -12
16 -20 16 -24 0 -16 40 10 52 47 21 72 -13 46 -63 -12 -21 -4 -24 38 -13 16 5
21 11 17 23 -13 31 -14 215 -2 244 14 32 23 34 30 7 3 -11 11 -20 17 -20 9 0
11 16 8 56 -5 54 -4 56 35 89 27 24 47 33 61 29 15 -3 27 3 40 21 10 14 25 25
32 25 19 0 54 40 54 62 0 29 -15 21 -56 -27z"/>
<path d="M85 1970 c-3 -5 -8 -22 -10 -37 -3 -16 -10 -50 -15 -78 -7 -29 -10
-143 -9 -275 2 -150 -1 -238 -9 -265 -21 -72 -42 -470 -42 -810 l0 -331 96
-11 c75 -9 100 -16 115 -32 11 -12 25 -21 31 -21 6 0 8 -11 5 -30 -4 -16 -2
-32 4 -36 6 -3 8 -15 6 -26 -5 -18 2 -19 284 -16 207 2 292 6 297 15 10 16
158 93 180 93 10 0 22 4 27 9 9 8 158 39 215 45 14 1 33 6 43 10 10 5 48 6 85
4 43 -4 60 -2 47 3 -13 6 -5 7 25 3 29 -3 40 -2 32 4 -21 14 46 22 195 22 73
0 134 -4 138 -10 3 -5 -33 -50 -80 -99 -47 -50 -85 -93 -85 -96 0 -3 970 -5
2155 -5 l2155 0 0 254 0 255 -22 7 c-13 5 -27 7 -31 6 -4 -1 -3 7 3 18 6 11
20 20 30 20 13 0 20 7 20 20 0 11 -4 20 -10 20 -5 0 -10 7 -10 15 0 8 4 15 10
15 15 0 13 597 -3 603 -9 4 -9 6 1 6 7 1 12 15 12 35 0 19 -6 37 -12 39 -10 4
-10 6 0 6 7 1 12 16 12 43 0 31 -3 39 -11 31 -6 -6 -17 -9 -24 -7 -6 3 -12 -2
-12 -11 0 -8 4 -15 9 -15 4 0 8 -8 8 -17 0 -12 -3 -14 -10 -7 -15 15 -21 52
-9 59 5 4 7 11 3 16 -3 6 0 10 7 8 36 -4 40 1 37 51 -3 48 -18 73 -18 29 0
-16 -4 -19 -20 -14 -12 4 -20 2 -20 -5 0 -6 4 -9 8 -6 5 3 9 -1 9 -8 0 -13
-38 -13 -59 0 -14 9 -9 -9 10 -29 17 -19 16 -19 -15 -12 -26 5 -33 3 -33 -9 0
-8 -10 -20 -21 -27 -16 -8 -20 -8 -14 1 4 7 1 11 -6 9 -34 -4 -40 0 -27 20 7
11 16 17 21 14 5 -3 8 3 7 13 -4 30 -1 46 8 41 4 -3 7 9 7 26 0 27 4 32 27 35
14 2 32 10 38 18 14 16 30 19 30 4 0 -5 -7 -10 -15 -10 -9 0 -18 -7 -22 -16
-3 -9 -13 -14 -24 -11 -12 3 -19 0 -19 -10 0 -8 5 -11 10 -8 7 4 8 -3 4 -22
-7 -25 -6 -27 9 -14 10 7 17 20 17 27 0 8 7 14 15 14 8 0 15 7 15 15 0 9 6 18
13 21 20 7 13 46 -9 54 -14 5 -20 2 -24 -13 -8 -29 -30 -33 -37 -8 -6 24 -14
26 -31 9 -10 -10 -15 -10 -22 2 -5 8 -12 11 -17 7 -4 -5 -1 -12 7 -18 13 -8
11 -13 -9 -29 -13 -11 -27 -20 -32 -20 -12 0 -11 18 1 22 5 2 12 19 16 38 4
24 3 31 -4 21 -6 -9 -19 -12 -33 -8 -13 3 -28 2 -35 -4 -9 -7 -14 -4 -19 10
-3 12 -10 21 -14 21 -11 0 -31 -80 -31 -124 0 -19 -4 -37 -10 -41 -5 -3 -7
-12 -3 -20 3 -9 0 -22 -8 -31 -7 -8 -14 -29 -15 -47 -6 -59 -8 -67 -17 -67 -4
0 -6 23 -4 50 5 48 4 50 -20 50 -23 0 -25 -3 -22 -44 2 -24 1 -42 -3 -39 -5 2
-8 11 -8 19 0 9 -5 12 -11 8 -9 -5 -10 1 -4 22 51 198 69 366 44 431 -11 30
-42 63 -75 81 -16 8 -26 7 -48 -7 -26 -17 -28 -17 -66 1 -25 13 -53 18 -82 16
-46 -4 -48 -3 42 -37 39 -15 45 -22 48 -49 2 -21 -1 -32 -10 -32 -8 0 -6 -4 5
-11 12 -7 15 -17 11 -37 -9 -37 -10 -37 -38 -18 -29 19 -36 20 -36 6 0 -6 22
-25 50 -42 27 -17 50 -37 50 -44 0 -19 -15 -18 -31 2 -15 18 -89 58 -95 51 -8
-7 38 -69 87 -118 25 -25 48 -56 51 -70 3 -13 9 -33 13 -44 6 -16 5 -18 -5 -8
-7 6 -27 9 -46 6 -31 -5 -34 -4 -34 21 0 31 -16 35 -25 5 -5 -14 -1 -27 13
-39 11 -11 23 -33 27 -50 5 -23 12 -30 31 -30 19 0 24 5 24 24 0 23 22 41 34
29 3 -4 6 -28 6 -55 0 -41 -3 -48 -20 -48 -13 0 -20 -7 -20 -20 0 -28 -15 -25
-30 8 l-13 27 -9 -32 c-9 -36 -28 -42 -53 -17 -15 15 -18 15 -44 -11 -16 -14
-31 -23 -34 -18 -9 14 11 86 26 98 12 9 47 77 47 91 0 2 -16 -12 -35 -31 -19
-19 -39 -35 -45 -35 -5 0 -10 -13 -10 -29 0 -58 -31 -164 -57 -195 -38 -46
-68 -58 -147 -59 -68 -1 -91 4 -201 44 -126 45 -183 49 -319 19 -57 -13 -127
-20 -192 -20 -56 0 -109 -3 -118 -6 -27 -11 -17 -24 17 -24 19 0 37 -3 40 -6
3 -4 -5 -25 -18 -48 -31 -53 -53 -114 -69 -191 -11 -53 -18 -63 -52 -87 -21
-14 -53 -46 -70 -70 -26 -35 -36 -42 -59 -40 -15 2 -37 -4 -50 -12 -12 -8 -39
-16 -61 -18 -31 -2 -42 -9 -57 -36 -22 -38 -26 -97 -9 -114 10 -10 15 -10 22
2 7 12 12 12 21 3 10 -10 8 -17 -7 -34 -24 -27 -78 -51 -98 -43 -24 9 -26 30
-4 30 35 -1 31 22 -4 29 -85 17 -93 28 -73 111 8 32 14 72 15 89 0 48 -24 12
-54 -80 -34 -106 -33 -137 6 -213 27 -50 30 -64 19 -71 -20 -13 -49 -2 -82 32
-25 24 -30 36 -25 59 5 24 2 28 -18 28 -12 0 -33 11 -46 25 -22 23 -22 27 -10
85 18 85 6 85 -21 0 -23 -71 -23 -72 -5 -103 62 -104 68 -119 58 -129 -17 -17
-63 8 -97 53 -16 23 -29 47 -27 55 2 8 -3 14 -11 14 -22 0 -57 44 -57 71 0 13
7 49 15 79 21 79 17 93 -11 35 -33 -69 -39 -108 -24 -172 6 -30 13 -78 15
-108 2 -30 6 -59 10 -65 3 -5 1 -10 -5 -10 -13 0 -40 25 -40 36 0 4 -10 21
-23 38 -13 17 -26 39 -30 49 -6 15 -25 22 -49 18 -5 0 -8 13 -8 30 0 17 4 28
10 24 5 -3 10 1 10 9 0 9 -4 16 -10 16 -16 0 -11 37 6 44 23 9 13 37 -21 56
-39 21 -40 46 -2 42 52 -6 24 31 -50 64 -28 12 -43 26 -43 38 0 13 4 16 18 11
9 -4 28 -10 42 -13 14 -3 37 -14 53 -24 26 -18 33 -15 28 15 -1 4 11 27 27 50
29 43 58 105 51 111 -2 1 -20 7 -39 12 -25 7 -34 15 -32 27 3 18 -13 23 -23 7
-7 -11 -33 -3 -57 17 -13 12 -20 12 -37 1 -12 -7 -21 -17 -21 -22 0 -5 -21 -6
-47 -2 -43 6 -46 5 -32 -9 9 -9 31 -18 49 -20 36 -5 54 -15 26 -15 -9 0 -14
-5 -11 -10 10 -16 -8 -11 -34 9 -32 24 -51 17 -51 -20 0 -25 -4 -29 -26 -29
-44 0 -134 59 -134 88 0 8 6 12 15 8 19 -7 19 14 0 40 -19 25 -19 34 2 34 9 0
27 9 39 21 12 12 28 18 34 14 8 -5 6 -12 -7 -22 -15 -13 -16 -14 -1 -9 10 3
30 -8 53 -30 20 -19 40 -34 45 -34 4 0 17 15 29 33 11 17 27 41 35 52 7 11 17
38 20 60 6 37 5 39 -9 21 -14 -19 -15 -19 -15 7 0 19 -7 30 -22 36 -13 5 -34
21 -47 35 -14 14 -33 26 -42 26 -10 0 -23 9 -29 20 -8 14 -17 19 -30 15 -10
-3 -21 -1 -25 5 -9 15 -42 3 -93 -33 -28 -20 -55 -31 -77 -31 -38 0 -47 -19
-17 -34 22 -12 40 -5 67 26 l22 25 34 -20 c19 -12 51 -24 71 -28 l38 -7 -6
-42 c-4 -22 -9 -44 -13 -47 -13 -14 -106 19 -126 45 -25 31 -31 32 -45 6 -9
-16 -7 -24 5 -36 8 -8 15 -22 15 -30 0 -8 8 -14 19 -14 16 0 19 -7 18 -49 0
-27 5 -56 12 -65 11 -13 11 -16 -2 -16 -9 0 -19 -5 -23 -12 -5 -7 -2 -9 9 -5
16 6 27 -11 27 -44 0 -11 -4 -17 -10 -14 -5 3 -10 -1 -10 -10 0 -8 6 -18 13
-21 9 -3 14 -21 13 -49 l-1 -44 -81 -11 c-60 -9 -88 -9 -102 -1 -29 15 -39 14
-62 -9 -19 -19 -19 -19 -14 10 5 23 0 38 -26 70 l-32 41 28 -7 c16 -4 40 -11
53 -16 30 -11 61 -1 62 20 2 29 -2 70 -10 98 -6 23 -9 25 -21 12 -8 -8 -37
-25 -63 -38 -26 -13 -70 -43 -97 -66 -27 -23 -65 -52 -84 -64 -21 -12 -36 -30
-36 -41 0 -28 -53 -25 -106 6 -53 31 -69 16 -28 -26 15 -16 32 -29 37 -29 4 0
37 -20 72 -46 43 -30 62 -50 58 -60 -3 -7 0 -14 6 -14 6 0 11 -9 11 -19 0 -19
-62 -81 -82 -81 -5 0 -25 -12 -43 -27 -58 -48 -108 -75 -155 -83 -25 -4 -54
-11 -65 -15 -18 -7 -17 -5 5 21 14 16 29 32 35 36 5 4 6 10 3 14 -4 3 8 25 26
48 l34 41 -23 17 c-12 9 -31 14 -42 12 -16 -4 -23 1 -31 25 -6 17 -18 31 -26
31 -9 0 -16 7 -16 15 0 20 -20 54 -45 78 -14 13 -16 20 -8 23 21 9 15 32 -9
36 -13 2 -22 11 -24 23 -1 11 -6 30 -9 43 -5 14 -3 22 4 22 15 0 2 52 -15 63
-14 8 -12 75 2 98 3 6 8 41 10 78 2 36 6 82 10 101 8 45 14 86 20 130 10 78
17 110 24 110 14 0 6 200 -8 209 -10 6 -11 26 -1 102 6 52 18 108 25 126 22
49 33 120 21 132 -17 17 -49 13 -84 -9 -18 -11 -39 -17 -47 -14 -8 3 -27 -1
-42 -9 l-28 -14 23 -8 c16 -5 26 -3 32 6 4 7 11 10 16 6 12 -12 -11 -41 -41
-52 -22 -8 -35 -5 -66 13 -45 26 -61 27 -98 8 -15 -8 -44 -17 -64 -21 -30 -6
-37 -4 -41 12 -3 12 -5 13 -6 3 -1 -11 -16 -16 -58 -17 -32 -2 -79 -10 -106
-19 -26 -9 -54 -14 -61 -11 -8 3 -18 1 -24 -5 -6 -6 -12 -6 -16 1 -7 10 -24 7
-62 -11 -16 -8 -28 -6 -47 7 -16 10 -27 12 -31 6 -5 -7 -14 -7 -30 0 -15 7
-34 8 -59 1 -40 -11 -53 -6 -35 15 16 20 5 24 -31 12 -17 -6 -41 -9 -53 -5
-34 8 -269 -12 -285 -25 -7 -7 -16 -10 -18 -7 -3 3 12 17 32 31 21 15 33 27
28 28 -6 0 -52 0 -102 0 -93 0 -119 9 -86 28 26 14 15 20 -53 27 -37 4 -67 14
-80 26 -17 15 -23 16 -27 6 -4 -10 -8 -11 -23 0 -21 13 -19 13 -89 36 -57 18
-81 20 -90 6z m5545 -938 c0 -25 31 -52 59 -52 32 -1 61 -22 61 -44 0 -13 -5
-16 -21 -11 -19 6 -21 4 -16 -14 7 -27 -5 -27 -23 1 -26 38 -62 68 -83 68 -11
0 -30 8 -41 18 -20 17 -21 17 -5 -3 23 -29 50 -87 36 -78 -7 5 -23 8 -36 8
-14 0 -32 11 -44 28 l-21 27 24 24 c14 13 36 38 50 55 l25 32 18 -22 c9 -12
17 -28 17 -37z m-2750 -316 c0 -7 14 -19 30 -26 17 -7 30 -17 30 -22 0 -5 5
-6 11 -3 6 4 17 -2 25 -13 8 -12 21 -19 29 -16 14 6 65 -37 65 -54 0 -4 -25
-19 -55 -31 -30 -13 -55 -27 -55 -32 0 -7 -90 -39 -113 -39 -5 0 -7 7 -3 15 3
9 -3 24 -15 36 -11 11 -17 25 -12 32 4 7 6 20 5 30 -4 19 13 18 82 -4 39 -12
46 -11 46 6 0 8 -4 15 -9 15 -22 0 -116 66 -117 83 -2 13 3 16 17 12 11 -4 19
-3 18 2 -3 15 1 23 11 23 6 0 10 -6 10 -14z m104 -366 c70 -1 79 -3 63 -14
-12 -10 -29 -11 -60 -5 -58 11 -60 11 -53 -6 3 -8 0 -15 -7 -15 -7 0 -24 -14
-39 -32 -24 -30 -30 -32 -85 -30 -66 2 -99 16 -106 43 -9 35 85 71 162 63 24
-2 80 -4 125 -4z"/>
<path d="M2390 1355 c0 -8 -20 -55 -44 -103 -25 -49 -47 -105 -51 -124 -13
-69 31 -55 82 25 20 32 25 55 28 123 2 46 -1 86 -6 89 -5 4 -9 -1 -9 -10z"/>
</g>
</svg>
